#define accordion_width 23
#define accordion_height 23
static char accordion_bits[] = {
  0x00, 0x00, 0x00, 0xFE, 0xFF, 0x3F, 0x02, 0x00, 0x20, 0xFE, 0xFF, 0x3F, 
  0x00, 0x00, 0x00, 0xFE, 0xFF, 0x3F, 0x02, 0x00, 0x20, 0x02, 0x00, 0x20, 
  0x02, 0x00, 0x20, 0x02, 0x00, 0x20, 0x02, 0x00, 0x20, 0x02, 0x00, 0x20, 
  0x02, 0x00, 0x20, 0xFE, 0xFF, 0x3F, 0x00, 0x00, 0x00, 0xFE, 0xFF, 0x3F, 
  0x02, 0x00, 0x20, 0xFE, 0xFF, 0x3F, 0x00, 0x00, 0x00, 0xFE, 0xFF, 0x3F, 
  0x02, 0x00, 0x20, 0xFE, 0xFF, 0x3F, 0x00, 0x00, 0x00, };
