#define cpuT_width 23
#define cpuT_height 23
static char cpuT_bits[] = {
  0x00, 0x00, 0x00, 0x50, 0x55, 0x05, 0xF8, 0xFF, 0x0F, 0xFC, 0xFF, 0x1F, 
  0x1E, 0x00, 0x3C, 0x0C, 0x00, 0x18, 0xCE, 0x5D, 0x39, 0x4C, 0x54, 0x19, 
  0x4E, 0x54, 0x39, 0x4C, 0x54, 0x19, 0x4E, 0x54, 0x39, 0x4C, 0x5C, 0x19, 
  0x4E, 0x44, 0x39, 0x4C, 0x44, 0x19, 0x4E, 0x44, 0x39, 0x4C, 0x44, 0x19, 
  0xCE, 0xC5, 0x39, 0x0C, 0x00, 0x18, 0x1E, 0x00, 0x3C, 0xFC, 0xFF, 0x1F, 
  0xF8, 0xFF, 0x0F, 0x50, 0x55, 0x05, 0x00, 0x00, 0x00, };
