#define test_width 23
#define test_height 23
static char test_bits[] = {
  0xFF, 0xFF, 0x7F, 0x03, 0x00, 0x60, 0x05, 0x00, 0x50, 0x09, 0x00, 0x48, 
  0x11, 0x00, 0x44, 0x21, 0x00, 0x42, 0x41, 0x00, 0x41, 0x81, 0x80, 0x40, 
  0x01, 0x41, 0x40, 0x01, 0x22, 0x40, 0x01, 0x14, 0x40, 0x01, 0x08, 0x40, 
  0x01, 0x14, 0x40, 0x01, 0x22, 0x40, 0x01, 0x41, 0x40, 0x81, 0x80, 0x40, 
  0x41, 0x00, 0x41, 0x21, 0x00, 0x42, 0x11, 0x00, 0x44, 0x09, 0x00, 0x48, 
  0x05, 0x00, 0x50, 0x03, 0x00, 0x60, 0xFF, 0xFF, 0x7F, };
