#define grid_width 23
#define grid_height 23
static char grid_bits[] = {
  0x00, 0x00, 0x00, 0xFE, 0xF7, 0x3F, 0x02, 0x14, 0x20, 0x02, 0x14, 0x20, 
  0x02, 0x14, 0x20, 0x02, 0x14, 0x20, 0x02, 0x14, 0x20, 0x02, 0x14, 0x20, 
  0x02, 0x14, 0x20, 0x02, 0x14, 0x20, 0xFE, 0xF7, 0x3F, 0x00, 0x00, 0x00, 
  0xFE, 0xF7, 0x3F, 0x02, 0x14, 0x20, 0x02, 0x14, 0x20, 0x02, 0x14, 0x20, 
  0x02, 0x14, 0x20, 0x02, 0x14, 0x20, 0x02, 0x14, 0x20, 0x02, 0x14, 0x20, 
  0x02, 0x14, 0x20, 0xFE, 0xF7, 0x3F, 0x00, 0x00, 0x00, };
