#define mastertab_width 23
#define mastertab_height 23
static unsigned char mastertab_bits[] = {
   0x00, 0x00, 0x00, 0xfe, 0xff, 0x3f, 0xc2, 0x3f, 0x20, 0xc2, 0x3f, 0x20,
   0xc2, 0x3f, 0x20, 0xc2, 0xff, 0x3f, 0x42, 0x00, 0x20, 0x42, 0x00, 0x20,
   0x42, 0x00, 0x20, 0x42, 0x00, 0x20, 0x42, 0x00, 0x20, 0x42, 0x00, 0x20,
   0x42, 0x00, 0x20, 0x42, 0x00, 0x20, 0x42, 0x00, 0x20, 0x42, 0x00, 0x20,
   0x42, 0x00, 0x20, 0x42, 0x00, 0x20, 0x42, 0x00, 0x20, 0x42, 0x00, 0x20,
   0x42, 0x00, 0x20, 0xfe, 0xff, 0x3f, 0x00, 0x00, 0x00 };
