#define mirror_accordion_width 23
#define mirror_accordion_height 23
static char mirror_accordion_bits[] = {
  0x00, 0x00, 0x00, 0xEE, 0xFE, 0x3B, 0xAA, 0x02, 0x2A, 0xAA, 0x02, 0x2A, 
  0xAA, 0x02, 0x2A, 0xAA, 0x02, 0x2A, 0xAA, 0x02, 0x2A, 0xAA, 0x02, 0x2A, 
  0xAA, 0x02, 0x2A, 0xAA, 0x02, 0x2A, 0xAA, 0x02, 0x2A, 0xAA, 0x02, 0x2A, 
  0xAA, 0x02, 0x2A, 0xAA, 0x02, 0x2A, 0xAA, 0x02, 0x2A, 0xAA, 0x02, 0x2A, 
  0xAA, 0x02, 0x2A, 0xAA, 0x02, 0x2A, 0xAA, 0x02, 0x2A, 0xAA, 0x02, 0x2A, 
  0xAA, 0x02, 0x2A, 0xEE, 0xFE, 0x3B, 0x00, 0x00, 0x00, };
