#define mirror_mtall_width 23
#define mirror_mtall_height 23
static char mirror_mtall_bits[] = {
  0xFF, 0xF7, 0x7F, 0x01, 0x14, 0x40, 0x01, 0x14, 0x40, 0x01, 0x14, 0x40, 
  0x01, 0x14, 0x40, 0x01, 0x14, 0x40, 0xFF, 0x17, 0x40, 0x00, 0x10, 0x40, 
  0xFF, 0x17, 0x40, 0x01, 0x14, 0x40, 0x01, 0x14, 0x40, 0x01, 0x14, 0x40, 
  0x01, 0x14, 0x40, 0x01, 0x14, 0x40, 0xFF, 0x17, 0x40, 0x00, 0x10, 0x40, 
  0xFF, 0x17, 0x40, 0x01, 0x14, 0x40, 0x01, 0x14, 0x40, 0x01, 0x14, 0x40, 
  0x01, 0x14, 0x40, 0x01, 0x14, 0x40, 0xFF, 0xF7, 0x7F, };
