#define mirror_mastertab_width 23
#define mirror_mastertab_height 23
static char mirror_mastertab_bits[] = {
  0x00, 0x00, 0x00, 0xFE, 0xFF, 0x3F, 0x02, 0x00, 0x20, 0x02, 0x00, 0x20, 
  0x02, 0x00, 0x20, 0x02, 0x00, 0x20, 0xFE, 0xFF, 0x3F, 0x02, 0x00, 0x3E, 
  0x02, 0x00, 0x3E, 0x02, 0x00, 0x3E, 0x02, 0x00, 0x3E, 0x02, 0x00, 0x3E, 
  0x02, 0x00, 0x3E, 0x02, 0x00, 0x3E, 0x02, 0x00, 0x22, 0x02, 0x00, 0x22, 
  0x02, 0x00, 0x22, 0x02, 0x00, 0x22, 0x02, 0x00, 0x22, 0x02, 0x00, 0x22, 
  0x02, 0x00, 0x22, 0xFE, 0xFF, 0x3F, 0x00, 0x00, 0x00, };
