#define mirror_masteracc_width 23
#define mirror_masteracc_height 23
static char mirror_masteracc_bits[] = {
  0x00, 0x00, 0x00, 0xFE, 0xFF, 0x3F, 0x02, 0x00, 0x20, 0x02, 0x00, 0x20, 
  0x02, 0x00, 0x20, 0x02, 0x00, 0x20, 0xFE, 0xFF, 0x3F, 0x92, 0x00, 0x24, 
  0x92, 0x00, 0x24, 0x92, 0x00, 0x24, 0x92, 0x00, 0x24, 0x92, 0x00, 0x24, 
  0x92, 0x00, 0x24, 0x92, 0x00, 0x24, 0x92, 0x00, 0x24, 0x92, 0x00, 0x24, 
  0x92, 0x00, 0x24, 0x92, 0x00, 0x24, 0x92, 0x00, 0x24, 0x92, 0x00, 0x24, 
  0x92, 0x00, 0x24, 0xFE, 0xFF, 0x3F, 0x00, 0x00, 0x00, };
