#define mirror_ram_width 23
#define mirror_ram_height 23
static char mirror_ram_bits[] = {
  0x00, 0x00, 0x00, 0xF8, 0xC7, 0x3F, 0x10, 0x84, 0x20, 0xD8, 0xC5, 0x2E, 
  0xD0, 0x85, 0x2E, 0xD8, 0xC5, 0x2E, 0x10, 0x84, 0x20, 0xD8, 0xC5, 0x2E, 
  0xD0, 0x85, 0x2E, 0xD8, 0xC5, 0x2E, 0x10, 0x84, 0x20, 0x18, 0xC4, 0x20, 
  0x10, 0x84, 0x20, 0xD8, 0xC5, 0x2E, 0xD0, 0x85, 0x2E, 0xD0, 0x85, 0x2E, 
  0x10, 0x84, 0x20, 0xD8, 0xC5, 0x2E, 0xD0, 0x85, 0x2E, 0xD8, 0xC5, 0x2E, 
  0x10, 0x84, 0x20, 0xF8, 0xC7, 0x3F, 0x00, 0x00, 0x00, };
