#define mirror_spiral_width 23
#define mirror_spiral_height 23
static char mirror_spiral_bits[] = {
  0xFF, 0xFF, 0x7F, 0x01, 0x00, 0x40, 0x01, 0x00, 0x40, 0x01, 0x00, 0x40, 
  0x01, 0x00, 0x40, 0x01, 0x00, 0x40, 0x01, 0x00, 0x40, 0x01, 0x00, 0x40, 
  0x01, 0x00, 0x40, 0x01, 0x00, 0x40, 0xFF, 0xFF, 0x7F, 0x00, 0x00, 0x00, 
  0xDF, 0xF7, 0x7F, 0x51, 0x14, 0x40, 0xD1, 0x17, 0x40, 0xD1, 0x15, 0x40, 
  0xDF, 0x17, 0x40, 0x00, 0x10, 0x40, 0xFF, 0x17, 0x40, 0x01, 0x14, 0x40, 
  0x01, 0x14, 0x40, 0x01, 0x14, 0x40, 0xFF, 0xF7, 0x7F, };
