#define mirror_threeCol_width 23
#define mirror_threeCol_height 23
static char mirror_threeCol_bits[] = {
  0xFF, 0xFF, 0x7F, 0x01, 0x00, 0x40, 0x01, 0x00, 0x40, 0x01, 0x00, 0x40, 
  0xFF, 0xFF, 0x7F, 0x00, 0x00, 0x00, 0xFF, 0xFF, 0x7F, 0x01, 0x00, 0x40, 
  0x01, 0x00, 0x40, 0x01, 0x00, 0x40, 0x01, 0x00, 0x40, 0x01, 0x00, 0x40, 
  0x01, 0x00, 0x40, 0x01, 0x00, 0x40, 0x01, 0x00, 0x40, 0x01, 0x00, 0x40, 
  0xFF, 0xFF, 0x7F, 0x00, 0x00, 0x00, 0xFF, 0xF7, 0x7F, 0x01, 0x14, 0x40, 
  0x01, 0x14, 0x40, 0x01, 0x14, 0x40, 0xFF, 0xF7, 0x7F, };
