#define tallR_width 23
#define tallR_height 23
static char tallR_bits[] = {
  0xFF, 0xFF, 0x7F, 0x01, 0x00, 0x40, 0x01, 0x00, 0x40, 0x01, 0x00, 0x40, 
  0x01, 0x00, 0x40, 0x01, 0x00, 0x40, 0x01, 0x00, 0x40, 0x01, 0x00, 0x40, 
  0x01, 0x00, 0x40, 0x01, 0x00, 0x40, 0xFF, 0xFF, 0x7F, 0x00, 0x00, 0x00, 
  0x7F, 0x7F, 0x7F, 0x41, 0x41, 0x41, 0x41, 0x41, 0x41, 0x41, 0x41, 0x41, 
  0x41, 0x41, 0x41, 0x41, 0x41, 0x41, 0x41, 0x41, 0x41, 0x41, 0x41, 0x41, 
  0x41, 0x41, 0x41, 0x41, 0x41, 0x41, 0x7F, 0x7F, 0x7F, };
