#define ram_width 23
#define ram_height 23
static char ram_bits[] = {
  0x00, 0x00, 0x00, 0xFE, 0xFF, 0x3F, 0x02, 0x00, 0x20, 0xBA, 0xE3, 0x2E, 
  0xBA, 0xE3, 0x2E, 0xBA, 0xE3, 0x2E, 0x02, 0x00, 0x20, 0xFE, 0xFF, 0x3F, 
  0xAA, 0x2A, 0x2A, 0x00, 0x00, 0x00, 0x00, 0x00, 0x00, 0x00, 0x00, 0x00, 
  0xFE, 0xFF, 0x3F, 0x02, 0x00, 0x20, 0xBA, 0xE3, 0x2E, 0xBA, 0xE3, 0x2E, 
  0xBA, 0xE3, 0x2E, 0x02, 0x00, 0x20, 0xFE, 0xFF, 0x3F, 0xAA, 0x2A, 0x2A, 
  0x00, 0x00, 0x00, 0x00, 0x00, 0x00, 0x00, 0x00, 0x00, };
