#define test_width 23
#define test_height 23
static char test_bits[] = {
  0xFF, 0xF7, 0x7F, 0x01, 0x14, 0x40, 0x01, 0x14, 0x40, 0x01, 0x14, 0x40, 
  0x01, 0x14, 0x40, 0x01, 0x14, 0x40, 0x01, 0x14, 0x40, 0x01, 0x14, 0x40, 
  0x01, 0x14, 0x40, 0x01, 0x14, 0x40, 0x01, 0xF4, 0x7F, 0x01, 0x04, 0x00, 
  0x01, 0xF4, 0x7D, 0x01, 0x54, 0x45, 0x01, 0xD4, 0x45, 0x01, 0xD4, 0x45, 
  0x01, 0xF4, 0x45, 0x01, 0x04, 0x44, 0x01, 0xF4, 0x45, 0x01, 0x14, 0x45, 
  0x01, 0x14, 0x45, 0x01, 0x14, 0x45, 0xFF, 0xF7, 0x7D, };
