#define test_width 23
#define test_height 23
static char test_bits[] = {
  0xDF, 0xFF, 0x7D, 0x51, 0x00, 0x45, 0x51, 0x00, 0x45, 0x51, 0x00, 0x45, 
  0x51, 0x00, 0x45, 0x51, 0x00, 0x45, 0x51, 0x00, 0x45, 0x51, 0x00, 0x45, 
  0x51, 0x00, 0x45, 0x51, 0x00, 0x45, 0x51, 0x00, 0x7D, 0x51, 0x00, 0x01, 
  0x51, 0x00, 0x7D, 0x51, 0x00, 0x45, 0x51, 0x00, 0x45, 0x51, 0x00, 0x45, 
  0x51, 0x00, 0x45, 0x51, 0x00, 0x45, 0x51, 0x00, 0x45, 0x51, 0x00, 0x45, 
  0x51, 0x00, 0x45, 0x51, 0x00, 0x45, 0xDF, 0xFF, 0x7D, };
