<svg
   width="3840"
   height="2160"
   viewBox="0 0 507.99999 285.75001"
   version="1.1"
   id="svg8"
   inkscape:version="1.3.2 (091e20ef0f, 2023-11-25)"
   sodipodi:docname="nix-wallpaper-nineish-dark-gray.svg"
   inkscape:export-filename="nixos-nineish-dark@4k.png"
   inkscape:export-xdpi="192"
   inkscape:export-ydpi="192"
   xmlns:inkscape="http://www.inkscape.org/namespaces/inkscape"
   xmlns:sodipodi="http://sodipodi.sourceforge.net/DTD/sodipodi-0.dtd"
   xmlns="http://www.w3.org/2000/svg"
   xmlns:svg="http://www.w3.org/2000/svg"
   xmlns:rdf="http://www.w3.org/1999/02/22-rdf-syntax-ns#"
   xmlns:cc="http://creativecommons.org/ns#"
   xmlns:dc="http://purl.org/dc/elements/1.1/">
  <defs
     id="defs2" />
  <sodipodi:namedview
     id="base"
     pagecolor="#ffffff"
     bordercolor="#666666"
     borderopacity="1.0"
     inkscape:pageopacity="0.0"
     inkscape:pageshadow="2"
     inkscape:zoom="0.12071595"
     inkscape:cx="2054.4095"
     inkscape:cy="418.33743"
     inkscape:document-units="px"
     inkscape:current-layer="layer1"
     showgrid="false"
     units="px"
     inkscape:showpageshadow="false"
     borderlayer="true"
     inkscape:pagecheckerboard="0"
     inkscape:deskcolor="#d1d1d1"
     inkscape:window-width="1899"
     inkscape:window-height="2054"
     inkscape:window-x="1925"
     inkscape:window-y="90"
     inkscape:window-maximized="1" />
    <path d="M0 11.25h508V297H0Z" style="display:inline;opacity:1;vector-effect:none;fill:#25273A;fill-opacity:1;stroke:none;stroke-width:1.53475;stroke-linecap:square;stroke-linejoin:miter;stroke-miterlimit:4;stroke-dasharray:none;stroke-dashoffset:0;stroke-opacity:.47;paint-order:fill markers stroke" transform="translate(0 -11.25)"/>
    <path d="m461.93-22.875 93.294 5.577 48.835 333.987-160.247 24.933-88.12-94.547-64.297-86.444 27.103-72.062 50.274-1.455 42.788-69.018z" style="display:inline;opacity:1;vector-effect:none;fill:#494D64;fill-opacity:1;stroke:none;stroke-width:1.82709;stroke-linecap:square;stroke-linejoin:miter;stroke-miterlimit:4;stroke-dasharray:none;stroke-dashoffset:0;stroke-opacity:.47;paint-order:fill markers stroke" transform="translate(0 -11.25)"/>
    <g style="display:inline">
        <path d="m1578.695-152.22-79.343 21.226-50.327 185.865L1312.94-81.97l-159.27 44.282 508.71 508.763 42.522-160.36-138.537-139.099 71.774-264.523zM945.963 16.37l-81.088 21.824-21.291 79.326 135.8 136.516-186.55 49.434-41.287 160.074 694.957-186.178-117.613-117.002-189.733 50.426Zm843.18 41.277-186.246 694.938 160.134-43.354 51.196-189.527 264.97-70.101 21.645-81.137-58.055-58.102-186.127 49.35 50.467-186.276zM1172.99 369.213l-160.134 43.353-51.196 189.528-264.97 70.103-21.645 81.135 58.055 58.102 186.127-49.35-50.467 186.275 117.984 115.793zm-58.978 281.516-42.522 160.357 138.537 139.1-71.773 264.523 59.443 59.312 79.344-21.226 50.326-185.865 136.086 136.841 159.272-44.28zm909.502 6.253L1328.557 843.16l117.613 117.004 189.732-50.426 193.198 194.42 81.086-21.826 21.29-79.326-135.8-136.516 186.553-49.433z" style="color:#000;clip-rule:nonzero;display:inline;overflow:visible;visibility:visible;opacity:1;isolation:auto;mix-blend-mode:normal;color-interpolation:sRGB;color-interpolation-filters:linearRGB;solid-color:#000;solid-opacity:1;fill:#25273A;fill-opacity:1;fill-rule:evenodd;stroke:#8AADF4;stroke-width:31.1539;stroke-linecap:butt;stroke-linejoin:miter;stroke-miterlimit:4;stroke-dasharray:none;stroke-dashoffset:0;stroke-opacity:1;paint-order:stroke fill markers;color-rendering:auto;image-rendering:auto;shape-rendering:auto;text-rendering:auto" transform="translate(69.417 30.935)scale(.22005)"/>
        <path d="m532.486-932.876-27.903-.01-32.856 56.564-32.624-56.868-56.156.526 122.196 211.676 28.053-48.882-33.23-57.826 46.81-80.49zm50.603 87.37L460.872-633.842l56.358-.146 33.464-57.69 93.112.294 14.236-24.721-13.941-24.17-65.416-.172 32.94-56.687zM607.3-628.23l-244.414-.012 28.307 48.735 66.692.136 46.302 80.784 28.527-.033 13.961-24.158-32.558-56.737 65.562.182z" style="color:#000;clip-rule:nonzero;display:inline;overflow:visible;visibility:visible;opacity:1;isolation:auto;mix-blend-mode:normal;color-interpolation:sRGB;color-interpolation-filters:linearRGB;solid-color:#000;solid-opacity:1;fill:#494D64;fill-opacity:1;fill-rule:evenodd;stroke:#CAD3F5;stroke-width:10.5835;stroke-linecap:butt;stroke-linejoin:miter;stroke-miterlimit:4;stroke-dasharray:none;stroke-dashoffset:0;stroke-opacity:1;paint-order:stroke fill markers;color-rendering:auto;image-rendering:auto;shape-rendering:auto;text-rendering:auto" transform="rotate(-15 2666.041 -576.458)scale(.64774)"/>
    </g>
</svg>
